<!-- Generated by IcoMoon.io -->
<svg version="1.1" xmlns="http://www.w3.org/2000/svg" width="20" height="20" viewBox="0 0 960 960">
<title></title>
<path d="M432 336c67.2 0 120-52.8 120-120s-52.8-120-120-120c-67.2 0-120 52.8-120 120s52.8 120 120 120zM432 144c40.8 0 72 31.2 72 72s-31.2 72-72 72-72-31.2-72-72 31.2-72 72-72z"></path>
<path d="M496.8 444c-9.6 16.8 2.4 36 21.6 36 9.6 0 16.8-4.8 21.6-12 12-21.6 36-36 62.4-36s50.4 14.4 62.4 36c4.8 7.2 12 12 21.6 12 19.2 0 31.2-21.6 21.6-36-26.4-36-64.8-60-108-60s-81.6 24-103.2 60z"></path>
<path d="M326.4 468c4.8 7.2 12 12 21.6 12 19.2 0 31.2-21.6 21.6-36-24-40.8-72-64.8-122.4-57.6s-91.2 48-98.4 98.4c-9.6 52.8 16.8 98.4 57.6 122.4 16.8 9.6 36-2.4 36-21.6 0-9.6-4.8-16.8-12-21.6-26.4-14.4-40.8-43.2-33.6-76.8 4.8-28.8 28.8-50.4 55.2-55.2 31.2-4.8 60 9.6 74.4 36z"></path>
<path d="M456 672c0 14.4 9.6 24 24 24h240c14.4 0 24-9.6 24-24s-9.6-24-24-24h-240c-14.4 0-24 9.6-24 24z"></path>
<path d="M552 768h-216v-192h216c14.4 0 24-9.6 24-24s-9.6-24-24-24h-240c-14.4 0-24 9.6-24 24v240c0 14.4 9.6 24 24 24h240c14.4 0 24-9.6 24-24s-9.6-24-24-24z"></path>
<path d="M888 528h-240c-14.4 0-24 9.6-24 24s9.6 24 24 24h216v192h-216c-14.4 0-24 9.6-24 24s9.6 24 24 24h240c14.4 0 24-9.6 24-24v-240c0-14.4-9.6-24-24-24z"></path>
</svg>
