<!-- Generated by IcoMoon.io -->
<svg version="1.1" xmlns="http://www.w3.org/2000/svg" width="20" height="20" viewBox="0 0 960 960">
<title></title>
<path d="M216 576h-72v-288h576v168c0 14.4 9.6 24 24 24s24-9.6 24-24v-312c0-26.4-21.6-48-48-48h-576c-26.4 0-48 21.6-48 48v432c0 26.4 21.6 48 48 48h72c14.4 0 24-9.6 24-24s-9.6-24-24-24zM144 144h576v96h-576v-96z"></path>
<path d="M456 672c0 14.4 9.6 24 24 24h240c14.4 0 24-9.6 24-24s-9.6-24-24-24h-240c-14.4 0-24 9.6-24 24z"></path>
<path d="M552 768h-216v-192h216c14.4 0 24-9.6 24-24s-9.6-24-24-24h-240c-14.4 0-24 9.6-24 24v240c0 14.4 9.6 24 24 24h240c14.4 0 24-9.6 24-24s-9.6-24-24-24z"></path>
<path d="M888 528h-240c-14.4 0-24 9.6-24 24s9.6 24 24 24h216v192h-216c-14.4 0-24 9.6-24 24s9.6 24 24 24h240c14.4 0 24-9.6 24-24v-240c0-14.4-9.6-24-24-24z"></path>
</svg>
